<?xml version="1.0" standalone="no"?>
<!DOCTYPE svg PUBLIC "-//W3C//DTD SVG 20010904//EN"
 "http://www.w3.org/TR/2001/REC-SVG-20010904/DTD/svg10.dtd">
<svg version="1.0" xmlns="http://www.w3.org/2000/svg"
 width="250.000000pt" height="273.000000pt" viewBox="0 0 250.000000 273.000000"
 preserveAspectRatio="xMidYMid meet">

<g transform="translate(0.000000,273.000000) scale(0.100000,-0.100000)"
fill="#000000" stroke="none">
<path d="M1190 2614 c0 -4 10 -33 23 -65 29 -78 46 -76 74 7 24 72 10 86 -16
16 -8 -23 -18 -42 -22 -42 -3 0 -14 20 -23 45 -10 25 -22 45 -27 45 -5 0 -9
-3 -9 -6z"/>
<path d="M1138 2553 c4 -52 15 -84 25 -72 10 11 -6 129 -18 129 -8 0 -10 -17
-7 -57z"/>
<path d="M1347 2553 c-20 -32 -33 -62 -30 -67 3 -5 11 -2 18 7 17 23 50 21 75
-5 11 -12 22 -20 24 -17 7 8 -29 133 -40 136 -7 2 -28 -22 -47 -54z m48 -23
c-3 -6 -10 -10 -16 -10 -10 0 -12 33 -2 44 9 9 26 -22 18 -34z"/>
<path d="M1025 2593 c-34 -8 -41 -23 -12 -23 19 0 27 -5 27 -17 0 -10 5 -35
11 -57 15 -54 30 -31 17 27 -9 43 -8 50 9 62 17 14 17 14 -7 14 -14 -1 -34 -3
-45 -6z"/>
<path d="M1551 2548 c-5 -13 -16 -41 -25 -62 -9 -22 -15 -40 -14 -41 2 -1 23
-9 47 -19 54 -21 67 -13 17 10 -39 19 -40 22 -27 43 8 12 14 13 36 3 31 -14
35 -15 35 -4 0 5 -11 14 -25 20 -14 6 -25 18 -25 27 0 18 14 19 41 4 11 -6 25
-8 32 -6 10 3 -62 47 -78 47 -3 0 -9 -10 -14 -22z"/>
<path d="M897 2543 c-11 -10 -8 -133 3 -133 6 0 10 7 10 15 0 24 47 42 70 27
36 -22 28 3 -14 51 -42 46 -56 54 -69 40z m50 -56 c-6 -20 -27 -19 -27 2 0 14
5 19 15 14 9 -3 14 -10 12 -16z"/>
<path d="M753 2478 c-18 -11 -33 -23 -33 -26 0 -20 62 -112 71 -106 8 4 7 10
0 17 -16 16 -13 47 5 47 8 0 24 -5 35 -11 11 -5 28 -9 37 -7 13 3 9 8 -15 21
-23 12 -30 22 -26 37 6 22 -12 51 -31 49 -6 0 -26 -10 -43 -21z m57 -21 c0
-16 -38 -40 -50 -32 -14 9 -12 32 3 38 23 10 47 7 47 -6z"/>
<path d="M1680 2481 c-8 -16 -5 -26 15 -49 14 -17 25 -35 25 -42 0 -21 -44 -6
-57 20 -11 22 -13 23 -19 6 -10 -25 30 -58 65 -54 34 4 41 46 11 73 -11 10
-20 24 -20 32 0 20 28 16 42 -7 15 -23 28 -26 28 -6 0 18 -38 46 -62 46 -9 0
-22 -9 -28 -19z"/>
<path d="M1155 2420 c-244 -37 -462 -185 -617 -420 -78 -119 -161 -312 -142
-329 5 -4 41 -18 79 -31 39 -12 147 -56 240 -95 332 -142 328 -141 350 -177
30 -52 61 -88 75 -88 9 0 7 7 -5 20 -18 20 -30 74 -14 64 5 -3 9 0 9 6 0 6 10
2 21 -9 12 -11 34 -24 49 -30 27 -9 28 -7 35 25 7 38 25 46 25 12 0 -13 4 -29
9 -37 17 -26 106 54 94 85 -3 8 3 17 12 21 23 8 45 -21 45 -59 0 -30 -53 -98
-76 -98 -19 0 -18 -13 6 -43 11 -14 20 -38 20 -54 0 -32 -32 -73 -58 -74 -10
0 -12 -3 -4 -6 6 -2 12 -8 12 -13 0 -9 -39 -23 -57 -21 -8 1 -13 -10 -13 -28
0 -24 4 -29 16 -24 12 5 15 0 13 -23 -2 -16 0 -48 5 -72 8 -45 -6 -78 -28 -65
-6 4 -5 -1 3 -11 13 -16 12 -17 -13 -10 -22 5 -28 3 -33 -14 -3 -13 -10 -18
-19 -15 -20 7 -17 32 4 40 9 4 22 11 28 17 12 11 7 53 -7 62 -5 3 -9 15 -9 28
0 12 -4 26 -9 31 -5 6 -14 27 -21 47 -14 46 -16 47 -64 39 -38 -6 -38 -6 -72
-101 -37 -102 -35 -110 22 -110 19 0 34 6 38 15 6 15 26 21 26 7 0 -9 -56 -72
-64 -72 -12 0 -124 -91 -191 -154 -66 -62 -99 -87 -218 -162 l-48 -31 62 -66
c78 -86 212 -175 321 -215 248 -90 489 -56 714 99 90 63 196 172 171 177 -9 2
-17 8 -17 13 0 5 -7 9 -15 9 -8 0 -15 4 -15 9 0 5 -11 12 -24 15 -33 8 -120
69 -193 135 -89 81 -142 123 -177 145 -17 10 -44 31 -60 47 l-28 29 29 0 c62
0 94 47 108 161 5 41 8 46 26 42 22 -6 39 -40 39 -80 0 -66 59 -123 127 -123
25 0 42 -14 99 -81 38 -44 71 -86 73 -92 2 -6 23 -37 47 -69 23 -32 45 -64 47
-70 15 -37 129 180 175 332 43 140 57 246 56 415 -1 128 -14 259 -28 272 -2 2
-57 -23 -122 -55 -66 -33 -159 -76 -209 -97 -209 -85 -400 -169 -406 -177 -3
-5 -11 -2 -18 6 -11 13 -9 20 7 43 11 15 30 48 42 73 12 25 24 46 25 48 12 14
484 212 505 212 9 0 20 4 25 9 6 5 36 16 68 25 65 19 64 19 26 118 -85 220
-247 423 -423 533 -156 97 -346 140 -511 115z m134 -280 c27 0 53 -24 56 -51
1 -13 3 -30 4 -38 1 -11 5 -11 20 3 27 25 70 34 121 26 l45 -7 -47 -2 c-63 -1
-98 -16 -129 -53 -14 -17 -36 -31 -48 -32 -21 -1 -22 -6 -24 -99 -1 -67 -6
-100 -15 -106 -20 -12 -28 -82 -10 -92 19 -10 24 -119 7 -150 -11 -21 -10 -21
27 -15 22 4 63 19 92 33 47 22 53 28 50 52 -3 23 -7 26 -40 23 -41 -3 -101 23
-95 41 7 21 60 28 106 12 25 -8 46 -15 48 -15 4 0 -3 27 -14 57 -3 7 5 10 23
8 37 -4 124 -93 103 -106 -8 -5 -26 -9 -41 -9 -18 0 -28 -5 -28 -14 0 -22 -51
-78 -65 -72 -7 2 -30 0 -51 -5 -22 -6 -47 -12 -56 -13 -10 -1 -21 -5 -24 -9
-4 -4 -16 -7 -26 -7 -10 0 -18 -3 -18 -7 0 -5 -17 -9 -37 -10 -21 -1 -39 -7
-41 -13 -2 -5 -12 -10 -23 -10 -10 0 -19 -3 -19 -7 0 -8 -47 -33 -62 -33 -15
0 -8 19 16 46 l23 28 -39 19 c-114 57 -70 187 63 187 51 0 49 -6 -5 -13 -49
-6 -58 -17 -60 -63 l-1 -38 72 -30 c40 -16 75 -28 77 -25 14 13 26 459 13 459
-5 0 -15 6 -22 13 -8 6 -21 18 -30 25 -13 11 -13 17 0 50 18 42 53 74 73 67 8
-3 21 -5 31 -5z m-134 -68 c19 -12 18 -12 -5 -6 -14 4 -32 9 -40 12 -8 3 -2
-5 13 -18 24 -19 28 -29 26 -61 -3 -34 2 -44 39 -82 44 -44 55 -88 28 -104 -7
-4 -21 -22 -30 -40 -11 -21 -21 -30 -31 -27 -8 4 -17 -1 -21 -10 -3 -9 -13
-16 -21 -16 -9 0 -2 15 21 44 20 23 36 46 36 49 0 15 -28 -6 -38 -29 -7 -13
-23 -29 -37 -36 -14 -6 -25 -18 -25 -27 0 -10 -3 -12 -8 -5 -7 11 -14 8 -92
-43 -41 -27 -55 -20 -20 10 36 31 88 92 70 81 -8 -4 -30 -22 -48 -39 -19 -16
-35 -28 -35 -26 -1 2 -13 -2 -27 -9 -41 -22 -70 -22 -70 1 0 10 -7 19 -15 19
-9 0 -33 9 -55 20 -28 14 -40 16 -43 7 -2 -6 -8 -9 -12 -4 -5 4 -4 12 3 19 13
13 -51 51 -85 49 -16 0 -23 5 -22 17 0 10 3 12 6 5 6 -16 23 -17 23 -3 0 6
-11 15 -26 20 -60 23 -106 48 -98 53 5 2 43 15 84 27 41 12 137 53 213 91 76
38 154 73 174 77 46 9 142 0 168 -16z m412 -8 c-3 -3 -12 -4 -19 -1 -8 3 -5 6
6 6 11 1 17 -2 13 -5z m-18 -26 c36 -14 50 -25 47 -35 -4 -11 -1 -13 14 -8 14
4 42 -5 84 -29 76 -43 96 -63 71 -72 -14 -6 -11 -9 14 -20 38 -16 42 -37 5
-28 -17 4 -29 2 -35 -7 -6 -10 -9 -11 -9 -1 0 6 -10 12 -22 12 l-23 1 23 12
c22 13 22 13 -14 29 -34 15 -35 15 -20 -1 15 -16 14 -18 -19 -28 -33 -10 -38
-9 -100 38 -36 27 -65 57 -65 66 0 12 3 13 13 5 8 -7 24 -8 43 -3 29 8 29 8
-16 18 -52 11 -60 9 -60 -18 0 -13 -11 -25 -30 -33 l-30 -12 40 -39 c49 -47
55 -80 13 -64 -16 6 -42 25 -59 43 l-31 33 -28 -24 c-21 -18 -25 -27 -16 -36
11 -11 16 -47 6 -47 -3 0 -14 8 -25 17 -21 18 -27 67 -10 78 6 4 8 10 5 15 -3
4 0 19 5 32 10 21 10 21 5 -6 l-6 -28 30 23 c17 14 31 35 32 49 1 14 3 31 3
38 2 23 47 52 81 52 18 0 56 -10 84 -22z m-11 -141 c28 -29 39 -46 33 -56 -10
-16 -23 -10 -76 37 -22 20 -35 39 -31 47 9 25 30 17 74 -28z m298 -17 c15 -6
25 -13 22 -15 -3 -3 -20 1 -39 9 -38 17 -25 21 17 6z m-425 -52 c8 -15 6 -18
-13 -18 -29 0 -57 38 -37 51 15 9 35 -4 50 -33z m203 -10 c-3 -4 -17 -8 -32
-7 -16 0 -21 3 -12 6 8 3 19 13 24 21 7 12 10 12 17 1 4 -7 5 -17 3 -21z m76
12 c0 -4 -9 -6 -21 -3 -15 4 -17 8 -8 14 14 8 29 3 29 -11z m-250 -52 c0 -16
-3 -19 -11 -11 -6 6 -8 16 -5 22 11 17 16 13 16 -11z m389 -7 c11 -7 10 -11
-5 -19 -27 -13 -47 -5 -31 13 14 17 18 17 36 6z m-61 -37 c10 -11 7 -16 -17
-29 -42 -21 -63 -18 -85 11 -20 28 -14 40 24 46 26 4 56 -7 78 -28z m-558 8
c0 -10 -7 -19 -15 -19 -18 0 -19 9 -3 25 16 16 18 15 18 -6z m433 -40 c31 -29
34 -47 11 -56 -30 -11 -45 -6 -72 25 -37 44 -43 55 -36 72 5 13 9 13 37 0 18
-9 44 -27 60 -41z m-456 -39 c0 -9 -13 -13 -41 -11 -37 1 -38 2 -8 5 18 2 30
8 28 12 -3 4 1 8 8 8 7 0 13 -6 13 -14z m241 -581 c-27 -11 -28 -15 -28 -76 0
-36 -4 -67 -9 -70 -18 -11 -32 24 -30 74 2 27 -2 55 -8 61 -9 9 -5 20 15 45
l26 33 31 -27 32 -27 -29 -13z m486 -91 c-21 -42 -30 -33 -13 13 7 20 17 32
21 28 5 -5 1 -23 -8 -41z m46 29 c8 -15 8 -20 -3 -20 -7 0 -13 9 -13 20 0 11
1 20 3 20 1 0 7 -9 13 -20z m-70 -80 c0 -5 -4 -10 -10 -10 -5 0 -10 5 -10 10
0 6 5 10 10 10 6 0 10 -4 10 -10z"/>
<path d="M1055 1650 c-3 -5 -1 -10 4 -10 6 0 11 5 11 10 0 6 -2 10 -4 10 -3 0
-8 -4 -11 -10z"/>
<path d="M978 2063 c7 -3 16 -2 19 1 4 3 -2 6 -13 5 -11 0 -14 -3 -6 -6z"/>
<path d="M930 2050 c-8 -5 -10 -10 -5 -10 6 0 17 5 25 10 8 5 11 10 5 10 -5 0
-17 -5 -25 -10z"/>
<path d="M983 1993 c9 -2 23 -2 30 0 6 3 -1 5 -18 5 -16 0 -22 -2 -12 -5z"/>
<path d="M981 1929 c-35 -27 -59 -49 -52 -49 7 0 33 16 58 35 25 19 52 35 59
35 23 0 25 -19 7 -47 l-18 -28 33 28 c40 32 48 33 62 7 9 -16 4 -25 -27 -54
-25 -23 -48 -36 -68 -36 -29 -1 -29 -2 -7 -11 15 -5 21 -14 16 -21 -4 -7 19
12 50 42 l57 55 19 -23 c10 -12 21 -18 24 -13 7 11 -72 91 -90 91 -8 0 -23 9
-34 20 -11 11 -21 20 -22 19 -2 0 -32 -23 -67 -50z"/>
<path d="M550 1879 c0 -5 5 -7 10 -4 6 3 10 8 10 11 0 2 -4 4 -10 4 -5 0 -10
-5 -10 -11z"/>
<path d="M990 1845 c-10 -12 -10 -15 3 -15 8 0 17 7 21 15 3 8 2 15 -3 15 -5
0 -14 -7 -21 -15z"/>
<path d="M1617 1939 c7 -7 15 -10 18 -7 3 3 -2 9 -12 12 -14 6 -15 5 -6 -5z"/>
<path d="M1787 2379 c-39 -51 -43 -77 -8 -45 17 16 20 16 49 -1 25 -14 32 -15
46 -4 25 21 19 55 -14 79 -16 12 -30 22 -32 21 -2 0 -20 -23 -41 -50z m83 -14
c0 -17 -36 -20 -45 -5 -4 6 -4 18 -1 26 4 12 10 13 26 4 11 -6 20 -17 20 -25z"/>
<path d="M632 2392 c-37 -31 -41 -42 -11 -35 16 5 29 -4 54 -33 44 -51 57 -37
15 16 -24 31 -30 44 -21 53 13 13 15 27 4 27 -5 0 -23 -13 -41 -28z"/>
<path d="M1901 2286 c-46 -47 -47 -60 -2 -100 29 -26 40 -11 13 17 -40 42 -18
75 24 36 31 -29 40 -20 13 15 -16 20 -19 30 -10 39 8 8 19 3 41 -18 16 -16 30
-24 30 -18 0 13 -48 73 -59 73 -4 0 -26 -20 -50 -44z"/>
<path d="M525 2295 c-29 -28 -31 -38 -9 -56 12 -10 22 -10 48 -1 47 17 58 15
54 -10 -2 -16 -12 -25 -33 -29 -24 -5 -27 -7 -12 -14 25 -11 67 20 67 49 0 40
-25 52 -66 32 -35 -16 -60 -14 -48 5 3 6 17 14 31 20 13 5 21 13 18 19 -10 16
-24 12 -50 -15z"/>
<path d="M460 2211 c0 -14 90 -84 98 -76 4 4 -13 25 -38 46 -45 39 -60 47 -60
30z"/>
<path d="M2014 2200 c-26 -10 -54 -48 -54 -70 0 -19 40 -60 58 -60 22 0 12 29
-10 32 -51 7 -21 78 34 78 15 0 29 -6 30 -12 0 -7 2 -19 2 -25 2 -18 20 -17
24 1 3 15 -40 67 -55 65 -4 0 -18 -4 -29 -9z"/>
<path d="M420 2161 c0 -6 11 -18 25 -27 38 -25 30 -35 -25 -33 -43 2 -72 -5
-59 -14 65 -49 107 -75 113 -70 3 4 -9 19 -26 34 l-33 28 52 1 c28 0 54 4 57
9 3 4 -14 21 -37 38 -59 41 -67 46 -67 34z"/>
<path d="M2081 2064 c-66 -44 -57 -63 10 -22 54 34 64 44 51 52 -5 3 -32 -11
-61 -30z"/>
<path d="M332 2030 c6 -20 105 -73 112 -61 4 6 -17 23 -46 38 -71 37 -71 37
-66 23z"/>
<path d="M2077 1993 c-29 -5 -28 -23 2 -23 24 0 42 -41 29 -64 -5 -10 -7 -20
-3 -24 8 -8 94 88 95 106 0 12 -59 14 -123 5z m83 -22 c0 -13 -26 -32 -33 -24
-14 13 -6 33 13 33 11 0 20 -4 20 -9z"/>
<path d="M294 1966 c-3 -9 8 -28 28 -46 l33 -32 -47 6 c-37 4 -47 2 -52 -11
-4 -9 -5 -17 -3 -19 11 -11 112 -52 117 -47 3 3 -1 8 -7 10 -7 3 -23 14 -35
24 l-23 20 48 -4 c26 -3 47 -2 47 1 0 3 -15 21 -32 40 -32 33 -32 34 -8 27 14
-4 29 -11 35 -16 12 -12 25 -11 25 1 0 8 -101 60 -117 60 -2 0 -6 -6 -9 -14z"/>
<path d="M2183 1876 c-28 -12 -55 -24 -58 -28 -7 -7 26 -78 37 -78 4 0 3 12
-2 26 -15 38 -14 40 40 63 28 12 48 26 45 31 -4 6 -7 10 -8 9 -1 0 -25 -11
-54 -23z"/>
<path d="M214 1765 c-7 -19 -14 -39 -14 -44 0 -5 27 -18 61 -30 l60 -20 15 34
c18 45 18 48 -9 73 -15 15 -36 22 -61 22 -33 0 -39 -4 -52 -35z m94 -1 c17
-11 21 -21 16 -37 -3 -12 -8 -23 -9 -25 -7 -8 -85 23 -85 34 0 44 36 58 78 28z"/>
<path d="M2242 1703 c-49 -11 -62 -18 -58 -30 3 -8 6 -21 6 -29 0 -22 38 -54
64 -54 13 0 36 10 51 21 23 19 26 26 20 58 -4 20 -10 39 -13 42 -4 4 -35 0
-70 -8z m56 -45 c-2 -25 -9 -34 -28 -39 -59 -15 -86 43 -27 60 54 16 59 14 55
-21z"/>
<path d="M280 1644 c-8 -1 -36 -6 -62 -9 -30 -4 -48 -11 -48 -19 0 -18 108
-92 118 -81 4 4 1 10 -5 12 -14 5 -17 42 -5 59 4 6 15 13 25 17 17 6 15 29 -1
26 -4 -1 -14 -3 -22 -5z m-30 -49 c0 -8 -4 -15 -9 -15 -5 0 -14 7 -21 15 -10
13 -9 15 9 15 12 0 21 -6 21 -15z"/>
<path d="M2280 1558 c-30 -5 -57 -12 -61 -16 -3 -4 -1 -27 5 -52 l11 -45 3 43
c2 33 7 42 21 42 13 0 20 -10 25 -30 8 -42 23 -37 18 6 -4 31 -2 35 14 32 13
-2 20 -13 22 -36 2 -17 8 -32 14 -32 10 0 1 80 -11 91 -3 3 -31 2 -61 -3z"/>
<path d="M355 1541 c-10 -33 -25 -184 -25 -261 0 -185 45 -397 120 -565 44
-97 110 -185 110 -146 0 20 149 261 161 261 4 0 10 12 13 26 5 20 10 24 19 15
6 -6 28 -11 48 -11 30 0 39 5 45 22 6 20 8 20 19 5 12 -16 74 -24 88 -11 3 3
-2 21 -10 40 -13 27 -14 38 -5 56 6 13 13 41 14 63 3 37 8 43 73 86 l70 47 30
-33 c17 -18 43 -35 58 -38 26 -4 26 -3 12 13 -8 9 -15 21 -15 27 0 6 -6 13
-12 16 -7 2 -9 8 -5 13 5 5 13 1 18 -9 14 -24 44 -21 58 6 11 22 12 22 7 0 -6
-32 18 -35 43 -6 34 38 25 73 -22 89 -45 16 -74 4 -83 -33 -4 -13 -12 -23 -20
-23 -8 0 -14 -4 -14 -10 0 -5 -4 -10 -10 -10 -5 0 -10 7 -10 15 0 9 -8 18 -17
22 -10 3 -29 14 -43 24 -14 9 -88 42 -165 73 -268 106 -411 171 -506 232 -36
22 -38 23 -44 5z m898 -331 c-7 -28 -13 -25 -13 6 0 14 4 23 9 20 5 -3 7 -15
4 -26z"/>
<path d="M180 1453 c-25 -9 -40 -35 -40 -69 0 -37 12 -44 80 -44 45 0 49 2 55
29 12 58 -40 104 -95 84z m70 -38 c6 -8 10 -22 8 -32 -3 -15 -11 -17 -48 -14
-25 1 -47 5 -49 7 -2 1 -1 15 3 29 5 20 12 25 40 25 18 0 39 -7 46 -15z"/>
<path d="M2238 1335 c-21 -47 19 -93 58 -67 6 4 15 22 19 40 5 22 12 32 26 32
21 0 26 -29 7 -48 -6 -6 -9 -15 -5 -19 14 -13 28 15 25 48 -2 28 -7 35 -30 37
-24 3 -28 -1 -38 -37 -6 -25 -17 -41 -26 -41 -20 0 -29 29 -16 51 15 23 15 29
2 29 -6 0 -16 -11 -22 -25z"/>
<path d="M198 1283 c-32 -14 -58 -31 -58 -38 0 -15 117 -61 128 -51 4 4 -1 12
-11 17 -21 12 -23 65 -2 73 15 5 21 27 8 25 -5 0 -34 -12 -65 -26z m29 -28 c8
-21 -1 -28 -27 -20 -17 5 -19 10 -9 21 15 18 28 18 36 -1z"/>
<path d="M2247 1210 c24 -21 21 -56 -5 -77 -27 -22 -5 -26 50 -8 54 18 78 32
78 45 0 7 -118 60 -134 60 -6 0 0 -9 11 -20z m57 -26 c23 -9 20 -34 -4 -34
-13 0 -20 7 -20 20 0 22 1 23 24 14z"/>
<path d="M180 1147 c-21 -10 -26 -21 -28 -60 l-3 -47 33 0 c18 0 50 3 71 6 37
7 37 7 31 43 -6 38 -35 71 -63 71 -9 0 -27 -6 -41 -13z m78 -49 c3 -27 2 -28
-42 -28 -42 0 -46 2 -46 24 0 28 13 36 55 33 25 -2 31 -7 33 -29z"/>
<path d="M1210 1065 c-13 -16 -7 -45 10 -45 5 0 10 14 10 30 0 34 -3 36 -20
15z"/>
<path d="M2227 1073 c-13 -20 -19 -83 -8 -83 6 0 11 14 11 31 l0 32 60 -7 c66
-8 84 7 23 19 -21 3 -48 9 -59 11 -12 3 -24 2 -27 -3z"/>
<path d="M225 1006 c-50 -9 -68 -19 -52 -27 8 -5 118 14 122 21 9 15 -9 17
-70 6z"/>
<path d="M238 942 c-32 -9 -58 -20 -58 -25 0 -9 31 -6 63 8 29 12 20 -22 -15
-54 -44 -39 -31 -52 34 -34 70 20 88 38 29 29 -48 -7 -48 -7 3 52 29 33 9 41
-56 24z"/>
<path d="M2194 925 c-31 -48 18 -95 99 -95 32 0 7 20 -39 31 -50 13 -65 32
-42 56 13 12 23 13 54 4 47 -13 64 -14 64 -2 0 9 -75 31 -104 31 -9 0 -23 -11
-32 -25z"/>
<path d="M2150 786 c-15 -46 -6 -71 29 -86 46 -18 74 -9 93 30 9 19 17 38 18
42 0 3 -24 14 -52 24 -29 9 -58 19 -64 21 -7 2 -17 -12 -24 -31z m75 -10 c39
-17 41 -23 21 -51 -12 -16 -19 -18 -41 -10 -33 12 -51 36 -42 59 8 20 18 20
62 2z"/>
<path d="M275 794 c-51 -19 -72 -39 -30 -29 17 3 47 9 68 12 34 5 37 3 37 -19
0 -19 -10 -29 -52 -47 -32 -14 -47 -25 -37 -28 8 -2 37 5 62 16 41 18 47 24
47 50 0 30 -22 62 -43 60 -7 0 -30 -7 -52 -15z"/>
</g>
</svg>
